<?xml version="1.0" encoding="UTF-8" standalone="no"?>
<!-- Created with Inkscape (http://www.inkscape.org/) -->

<svg
   xmlns:dc="http://purl.org/dc/elements/1.1/"
   xmlns:cc="http://creativecommons.org/ns#"
   xmlns:rdf="http://www.w3.org/1999/02/22-rdf-syntax-ns#"
   xmlns:svg="http://www.w3.org/2000/svg"
   xmlns="http://www.w3.org/2000/svg"
   xmlns:sodipodi="http://sodipodi.sourceforge.net/DTD/sodipodi-0.dtd"
   xmlns:inkscape="http://www.inkscape.org/namespaces/inkscape"
   width="35.613331mm"
   height="35.613331mm"
   viewBox="0 0 126.18897 126.18897"
   id="svg2"
   version="1.1"
   inkscape:version="0.91 r13725"
   sodipodi:docname="sportsfeed.svg">
  <defs
     id="defs4" />
  <sodipodi:namedview
     id="base"
     pagecolor="#ffffff"
     bordercolor="#666666"
     borderopacity="1.0"
     inkscape:pageopacity="0.0"
     inkscape:pageshadow="2"
     inkscape:zoom="4.8023218"
     inkscape:cx="66.738552"
     inkscape:cy="63.094486"
     inkscape:document-units="px"
     inkscape:current-layer="layer2"
     showgrid="false"
     fit-margin-top="0"
     fit-margin-left="0"
     fit-margin-right="0"
     fit-margin-bottom="0"
     inkscape:window-width="1440"
     inkscape:window-height="808"
     inkscape:window-x="0"
     inkscape:window-y="1"
     inkscape:window-maximized="1" />
  <metadata
     id="metadata7">
    <rdf:RDF>
      <cc:Work
         rdf:about="">
        <dc:format>image/svg+xml</dc:format>
        <dc:type
           rdf:resource="http://purl.org/dc/dcmitype/StillImage" />
        <dc:title></dc:title>
      </cc:Work>
    </rdf:RDF>
  </metadata>
  <g
     inkscape:label="Layer 1"
     inkscape:groupmode="layer"
     id="layer1"
     transform="translate(-1.1684172,-1.9560093)" />
  <g
     inkscape:groupmode="layer"
     id="layer2"
     inkscape:label="Layer 2"
     transform="translate(-1.1684172,-1.9560093)">
    <g
       id="g4159"
       transform="matrix(0.44813283,0,0,0.44813283,-81.037672,-203.65035)">
      <path
         d="M 465.02966,599.60089 A 140.79416,140.79416 0 0 1 329.06811,740.31209 140.79416,140.79416 0 0 1 183.77309,609.2604 140.79416,140.79416 0 0 1 309.76047,459.5528 140.79416,140.79416 0 0 1 463.70424,580.32739"
         sodipodi:open="true"
         sodipodi:end="6.1458628"
         sodipodi:start="0"
         sodipodi:ry="140.79416"
         sodipodi:rx="140.79416"
         sodipodi:cy="599.60089"
         sodipodi:cx="324.2355"
         sodipodi:type="arc"
         id="path4146"
         style="fill:#ff0000;fill-opacity:1;stroke:none;stroke-width:0.5;stroke-linecap:round;stroke-miterlimit:4;stroke-dasharray:none;stroke-opacity:1" />
      <g
         id="flowRoot4136"
         style="font-style:normal;font-variant:normal;font-weight:300;font-stretch:normal;font-size:80px;line-height:125%;font-family:'.Hiragino Sans GB Interface';-inkscape-font-specification:'.Hiragino Sans GB Interface Light';letter-spacing:0px;word-spacing:0px;fill:#ffffff;fill-opacity:1;stroke:none;stroke-width:1px;stroke-linecap:butt;stroke-linejoin:miter;stroke-opacity:1"
         transform="matrix(2.5073776,0,0,2.5073776,-154.15784,-619.70386)">
        <path
           id="path4154"
           style="font-style:normal;font-variant:normal;font-weight:normal;font-stretch:normal;font-size:90px;font-family:HeadLineA;-inkscape-font-specification:HeadLineA;fill:#ffffff"
           d="m 191.19727,501.59888 q 0,5.18555 -0.79102,7.47071 -0.70313,2.19726 -2.46094,4.13086 -1.75781,1.93359 -4.92187,2.8125 -3.16407,0.79101 -7.5586,0.79101 -4.74609,0 -7.82226,-0.87891 -3.07617,-0.8789 -4.92188,-2.98828 -1.75781,-2.10937 -2.63672,-4.92187 -0.79101,-2.90039 -0.79101,-9.14063 l 0,-2.28515 13.18359,0 0,5.625 q 0,3.07617 0.35156,4.21875 0.43946,1.14258 2.10938,1.14258 2.8125,0 2.8125,-4.92188 0,-3.16406 -0.35156,-4.74609 -0.35157,-1.58203 -2.10938,-3.33985 -8.17383,-5.88867 -11.25,-8.78906 -5.18554,-4.83398 -5.18554,-14.23828 0,-3.33984 0.35156,-5.80078 0.43945,-2.46094 1.66992,-4.65821 1.75781,-2.90039 4.92187,-3.95507 3.16407,-1.05469 8.4375,-1.05469 5.09766,0 7.99805,0.61523 2.98828,0.61524 4.92188,2.72461 1.93359,2.10938 2.54882,5.36133 0.35157,1.93359 0.35157,7.11914 l 0,0.79102 -13.09571,0 0,-2.72461 q 0,-2.37305 -0.0879,-2.90039 -0.35156,-2.02149 -2.19726,-2.02149 -2.54883,0 -2.54883,4.7461 0,3.6914 1.14258,5.27343 1.23047,1.58204 7.38281,5.53711 6.76758,4.30664 8.87695,9.14063 1.66993,3.7793 1.66993,11.86523 z"
           inkscape:connector-curvature="0" />
        <path
           id="path4156"
           style="font-style:normal;font-variant:normal;font-weight:normal;font-stretch:normal;font-size:90px;font-family:HeadLineA;-inkscape-font-specification:HeadLineA;fill:#ffffff"
           d="m 223.18945,468.11255 -10.89843,0 0,11.51368 9.75585,0 0,11.51367 -9.75585,0 0,25.40039 -15.73243,0 0,-60.46875 26.63086,0 0,12.04101 z"
           inkscape:connector-curvature="0" />
      </g>
    </g>
  </g>
</svg>
